<?xml version="1.0" standalone="no"?>
<!DOCTYPE svg PUBLIC "-//W3C//DTD SVG 20010904//EN"
 "http://www.w3.org/TR/2001/REC-SVG-20010904/DTD/svg10.dtd">
<svg version="1.0" xmlns="http://www.w3.org/2000/svg"
 width="200.000000pt" height="200.000000pt" viewBox="0 0 200.000000 200.000000"
 preserveAspectRatio="xMidYMid meet">
<metadata>
Created by potrace 1.14, written by Peter Selinger 2001-2017
</metadata>
<g transform="translate(0.000000,200.000000) scale(0.100000,-0.100000)"
fill="#000000" stroke="none">
<path d="M740 1838 c-143 -62 -228 -117 -310 -203 -108 -111 -177 -224 -218
-357 -31 -99 -36 -141 -36 -273 0 -139 23 -244 79 -363 127 -269 372 -453 663
-497 349 -53 722 121 918 429 l18 29 -25 -6 c-14 -4 -44 -9 -65 -13 -21 -3
-58 -9 -80 -13 -62 -12 -220 -5 -301 13 -150 32 -292 108 -405 214 -69 65
-158 178 -158 201 0 6 -4 11 -9 11 -10 0 -63 124 -84 201 -51 177 -36 407 37
574 15 31 26 59 26 61 0 7 -24 3 -50 -8z"/>
<path d="M1135 1670 l-38 -100 -105 0 c-103 0 -106 -1 -82 -17 14 -9 27 -19
30 -22 3 -4 30 -25 62 -49 l56 -43 -25 -77 c-35 -109 -34 -106 -35 -112 0 -3
-4 -13 -9 -22 -5 -10 -7 -18 -3 -18 5 0 149 103 181 129 11 10 37 -6 88 -52
11 -10 36 -28 55 -40 19 -11 38 -26 42 -31 15 -23 17 3 3 37 -8 20 -15 39 -15
42 0 3 0 6 0 8 0 1 -11 33 -24 70 l-23 68 31 22 c17 12 55 41 84 64 l53 43
-104 0 -103 0 -32 89 c-18 48 -32 93 -32 100 0 34 -22 -1 -55 -89z"/>
</g>
</svg>
